<?xml version="1.0" encoding="UTF-8"?>
<svg version="1.1" xmlns="http://www.w3.org/2000/svg" width="1080" height="1080">
<path d="M0 0 C356.4 0 712.8 0 1080 0 C1080 356.4 1080 712.8 1080 1080 C723.6 1080 367.2 1080 0 1080 C0 723.6 0 367.2 0 0 Z " fill="#FEFEFE" transform="translate(0,0)"/>
<path d="M0 0 C1.07636719 0.38542969 2.15273438 0.77085937 3.26171875 1.16796875 C27.08377916 10.40387423 41.08830464 27.0400514 51.23828125 49.7734375 C52.27903789 52.81564921 51.83555933 54.93628245 51 58 C46.22435617 60.38782192 39.04972099 59.3543029 33.74291992 59.4050293 C32.04447092 59.42661081 30.34613319 59.46071626 28.64819336 59.50756836 C26.19594829 59.57460609 23.74600107 59.60203007 21.29296875 59.62109375 C20.53759323 59.64892441 19.78221771 59.67675507 19.00395203 59.70542908 C16.09024171 59.69410544 13.73374174 59.60424199 11.42684937 57.70449829 C9.02831126 54.87242098 7.12508052 51.69458162 5.25 48.5 C0.11996601 40.69342654 -9.28175392 35.53676622 -18.32885742 33.46728516 C-34.35553955 30.66360454 -49.8898793 32.78137324 -63.3984375 41.96875 C-73.98691217 50.23602752 -80.7801454 61.68668731 -83 75 C-83.26798448 78.63019398 -83.28003007 82.23635608 -83.25 85.875 C-83.25773437 86.80441406 -83.26546875 87.73382812 -83.2734375 88.69140625 C-83.23117162 103.84372413 -78.63881078 118.56525384 -68.26171875 129.8984375 C-56.30003563 141.24098588 -42.26909545 143.60859113 -26.47265625 143.3046875 C-14.95369954 142.82858374 -5.36743379 139.0646648 3 131 C4.79932111 128.50344196 6.29097942 126.03844803 7.68359375 123.296875 C9.26132678 120.54403517 10.4672415 118.95403748 13 117 C15.93506583 116.62659628 18.48502257 116.48526296 21.4140625 116.5390625 C22.63033829 116.54043716 22.63033829 116.54043716 23.8711853 116.5418396 C25.58084995 116.54786991 27.29050431 116.56359894 29 116.58837891 C31.62278945 116.62496916 34.24416906 116.62939764 36.8671875 116.62890625 C38.52865809 116.63873459 40.19011909 116.65039037 41.8515625 116.6640625 C42.63802155 116.66628815 43.42448059 116.66851379 44.23477173 116.67080688 C49.76782425 116.76782425 49.76782425 116.76782425 52 119 C51.70000542 132.79975063 42.00469525 146.61553961 32.890625 156.26171875 C23.70717852 164.96117278 13.80012077 170.52665447 2 175 C0.92878906 175.47373047 0.92878906 175.47373047 -0.1640625 175.95703125 C-19.86206164 184.46489045 -48.29869031 181.87475836 -67.8125 174.1875 C-70.23251142 173.16959829 -72.61201807 172.0940415 -75 171 C-75.95390625 170.57074219 -76.9078125 170.14148438 -77.890625 169.69921875 C-97.29054574 160.08434575 -111.7065783 141.81517871 -118.8125 121.625 C-127.12409235 94.30344811 -126.36045765 66.554126 -113 41 C-102.75433134 21.94058745 -86.04972888 8.60691681 -66 1 C-65.33532715 0.7431543 -64.6706543 0.48630859 -63.98583984 0.22167969 C-44.77932533 -6.84414077 -19.20541568 -7.12945902 0 0 Z " fill="#010101" transform="translate(503,478)"/>
<path d="M0 0 C0.95740207 -0.00301597 1.91480413 -0.00603194 2.90121838 -0.0091393 C3.95736859 -0.00736983 5.01351879 -0.00560036 6.10167354 -0.00377727 C7.78652465 -0.00685622 7.78652465 -0.00685622 9.50541314 -0.00999737 C13.30840476 -0.01569856 17.11136053 -0.01420629 20.9143557 -0.0127914 C23.65281146 -0.01482234 26.39126484 -0.01834687 29.12971914 -0.0217948 C35.89183212 -0.02938653 42.6539372 -0.03156845 49.416054 -0.03212385 C57.5123932 -0.03303635 65.60872507 -0.03970052 73.70506113 -0.04647068 C93.27670847 -0.06254548 112.84835504 -0.06843576 132.4200078 -0.07321942 C141.67633468 -0.07555402 150.93266094 -0.07915654 160.18898733 -0.0829148 C191.8656188 -0.09575199 223.54224992 -0.10647074 255.21888393 -0.1099174 C257.20811676 -0.11013904 259.19734959 -0.11036082 261.18658241 -0.11058275 C263.18066476 -0.1108034 265.1747471 -0.11102388 267.16882944 -0.1112442 C271.1694083 -0.11168676 275.16998716 -0.11213387 279.17056602 -0.11258388 C280.65843723 -0.11274796 280.65843723 -0.11274796 282.17636645 -0.11291536 C314.34013317 -0.1165461 346.50387735 -0.1324659 378.66763544 -0.15577424 C412.66146573 -0.18036381 446.65528315 -0.19408985 480.6491226 -0.19528532 C484.38005517 -0.19545678 488.11098774 -0.19567221 491.84192032 -0.19591975 C492.76060165 -0.19597552 493.67928299 -0.19603129 494.62580316 -0.19608875 C509.41824859 -0.19724 524.21067093 -0.20826843 539.00310856 -0.22280681 C553.86919681 -0.23716501 568.73525542 -0.24041264 583.60134871 -0.23236683 C592.43533624 -0.22790726 601.26922815 -0.23178424 610.10320315 -0.24760534 C616.00434704 -0.25734676 621.90542385 -0.2561851 627.80656711 -0.24616911 C631.16887221 -0.24077092 634.5308437 -0.2417424 637.89315767 -0.25267783 C641.51802581 -0.2637225 645.14240749 -0.2563151 648.76726192 -0.2442863 C649.80702396 -0.25188149 650.846786 -0.25947669 651.91805598 -0.26730204 C662.30717668 -0.19272806 670.61986792 2.07597113 678.37491173 9.1276505 C685.27231987 16.21665332 686.97118367 24.32660209 686.8828463 33.89936376 C686.88908626 34.94947088 686.89532622 35.999578 686.90175527 37.08150655 C686.91764401 40.58206445 686.90509657 44.08192205 686.89248985 47.58248448 C686.8979128 50.09957844 686.90503643 52.61666923 686.91373008 55.13375401 C686.93005644 61.25008684 686.92769385 67.36616258 686.91607952 73.4824987 C686.9070282 78.45599424 686.90582852 83.4294348 686.91017479 88.40293622 C686.91078772 89.11209742 686.91140065 89.82125862 686.91203216 90.55190955 C686.91331112 91.99278745 686.91460798 93.43366533 686.91592252 94.8745432 C686.92731636 108.37147711 686.91423388 121.86830217 686.89272106 135.36521823 C686.874855 146.93199821 686.87795239 158.49861757 686.8963961 170.06539464 C686.91783069 183.51406633 686.92621377 196.9626427 686.91394705 210.41132909 C686.91267292 211.84706905 686.91141544 213.28280902 686.91017479 214.71854901 C686.90955768 215.42486334 686.90894058 216.13117767 686.90830478 216.85889546 C686.90485934 221.82264873 686.91066286 226.78634126 686.920093 231.75008512 C686.93252161 238.43885869 686.92359808 245.1272833 686.90051597 251.81604314 C686.8952367 254.26777003 686.89672921 256.71952249 686.90556663 259.17123914 C686.91653616 262.52415194 686.90274011 265.87610175 686.8828463 269.2289536 C686.89176918 270.19365982 686.90069207 271.15836604 686.90988535 272.15230578 C686.80623792 281.19046652 684.21261895 289.0333107 677.92178673 295.666713 C668.27394898 304.77855976 655.2193813 304.57910463 642.67959923 304.49093175 C641.19612959 304.49041139 639.71265926 304.49093588 638.22919029 304.49244237 C635.14142697 304.49235335 632.05392857 304.48206743 628.96622032 304.46383214 C625.03496021 304.4411075 621.10408444 304.44061585 617.17277664 304.44734979 C614.11674993 304.45071143 611.06080875 304.44401927 608.00479835 304.43422055 C606.55612077 304.43040903 605.10743361 304.42920325 603.6587519 304.4308064 C586.83410025 304.43392183 586.83410025 304.43392183 580.37491173 302.1276505 C578.92112384 299.22007473 579.23406776 296.66604457 579.21719688 293.41817784 C579.2095758 292.38362966 579.2095758 292.38362966 579.20180076 291.32818151 C579.19108907 289.82766932 579.18247203 288.32714109 579.17568153 286.82660604 C579.16389013 284.44661447 579.14443373 282.06680417 579.12256187 279.68688512 C579.06097564 272.91899266 579.00702753 266.15111594 578.97354454 259.38302159 C578.9525156 255.24380863 578.91714015 251.1049217 578.87278694 246.96589589 C578.85868397 245.39279213 578.84991746 243.81963063 578.84673256 242.24646688 C579.25483144 229.36345655 579.25483144 229.36345655 573.64834923 218.2526505 C568.5003679 215.2019949 564.33252587 214.14905323 558.37491173 215.1276505 C552.61154877 216.98364874 547.64050716 219.72634071 544.24296898 224.82702184 C540.84318122 231.55137107 540.81619006 238.20031824 540.85849136 245.58084798 C540.87124177 247.81753955 540.8597281 250.05301901 540.84245628 252.28966832 C540.81591101 256.22418092 540.81015545 260.15839007 540.81155723 264.09298253 C540.8137975 270.41052395 540.79971295 276.72769411 540.75597137 283.04508901 C540.74613435 285.24723772 540.75484304 287.44879887 540.76466697 289.65093541 C540.75852547 290.99653059 540.75161464 292.34212255 540.74380821 293.68770909 C540.74476997 294.86191411 540.74573173 296.03611913 540.74672264 297.24590611 C540.37491173 300.1276505 540.37491173 300.1276505 539.07196373 302.00588536 C536.1667689 303.9262427 532.86365097 303.55358196 529.49600548 303.526088 C528.72813209 303.52895818 527.96025871 303.53182836 527.16911644 303.53478551 C525.54768457 303.53682527 523.92622804 303.5313015 522.30484337 303.51876378 C519.81787727 303.50268583 517.33253086 303.51862555 514.84561485 303.53780675 C513.27074146 303.53582473 511.69586908 303.53198191 510.12100548 303.526088 C509.00223266 303.53519704 509.00223266 303.53519704 507.86085838 303.5444901 C505.76724571 303.51583409 505.76724571 303.51583409 502.37491173 303.1276505 C500.22484732 299.9025539 500.12638053 299.07332996 500.13440269 295.36307836 C500.1302787 293.89282956 500.1302787 293.89282956 500.12607139 292.39287877 C500.13326195 291.31897893 500.1404525 290.24507909 500.14786094 289.13863683 C500.14756889 288.00678456 500.14727684 286.8749323 500.14697593 285.70878148 C500.14837184 281.95900421 500.16394551 278.20942441 500.17959923 274.45968175 C500.18332842 271.86322188 500.18617583 269.2667606 500.18817466 266.67029881 C500.19503672 260.52923245 500.21080759 254.38824787 500.23087364 248.24721235 C500.25322295 241.25575016 500.26422363 234.26428458 500.27426451 227.27279556 C500.29517358 212.89104232 500.33035561 198.50934893 500.37491173 184.1276505 C515.38738299 186.96290125 524.72080029 194.81982554 534.37491173 206.1276505 C534.70362266 205.642963 535.0323336 205.1582755 535.37100548 204.6589005 C542.82927388 194.14860357 552.08783227 187.22334365 564.37491173 183.1276505 C567.89109953 182.87028287 571.412799 182.89621331 574.93741173 182.8776505 C576.36537071 182.846713 576.36537071 182.846713 577.82217735 182.8151505 C589.71842061 182.75036497 598.0167901 185.94420254 606.50772423 194.20186925 C618.92014499 207.32422552 619.83828988 223.81936667 619.66788048 241.02218175 C619.6622707 242.70753655 619.65800715 244.39289631 619.65501732 246.0782578 C619.64367711 250.4693152 619.61430607 254.86006496 619.58090538 259.25100255 C619.54996818 263.74955644 619.53646194 268.24816105 619.5213961 272.74679112 C619.48942357 281.54055057 619.43836196 290.33406204 619.37491173 299.1276505 C625.51340879 299.05859288 631.65123647 298.97053731 637.78921837 298.86519933 C639.8754056 298.83203388 641.96168074 298.80397607 644.04800743 298.78121495 C647.05449052 298.74751481 650.06017398 298.69519082 653.06631798 298.63936925 C653.99263527 298.63297933 654.91895256 298.6265894 655.87334007 298.62000585 C663.72348539 298.44350677 669.83725496 296.51849549 675.68356276 291.04829097 C681.30817892 284.66116116 681.95969914 276.44862683 681.88957542 268.31161046 C681.89652095 267.26881602 681.90346648 266.22602158 681.91062248 265.1516273 C681.92881644 261.68182445 681.91864904 258.21271119 681.90835899 254.74288487 C681.91542122 252.24534653 681.9241675 249.74781248 681.93446678 247.25028539 C681.95460452 241.18555613 681.95599737 235.12109449 681.94784123 229.05635917 C681.94152607 224.12483824 681.94269212 219.19337193 681.94911331 214.26185155 C681.95046579 213.20663907 681.95046579 213.20663907 681.9518456 212.13010916 C681.95369691 210.7007468 681.95555947 209.27138445 681.95743316 207.84202212 C681.97398796 194.45763545 681.96531189 181.07335438 681.94844758 167.68897408 C681.93374947 155.45837174 681.94838457 143.22801505 681.97721774 130.99744433 C682.00664647 118.42001467 682.01757412 105.84269824 682.00803554 93.26523566 C682.00701305 91.84130694 682.00601844 90.41737821 682.00505203 88.99344945 C682.00457564 88.29295833 682.00409925 87.59246721 682.00360842 86.87074909 C682.00144905 81.94854174 682.01122276 77.02644222 682.02582306 72.10425878 C682.04522227 65.47210117 682.03820802 58.84032597 682.01362365 52.20816159 C682.00861945 49.7773943 682.01209527 47.34659217 682.02477211 44.91585279 C682.04073608 41.59127652 682.02571825 38.26819686 682.00310081 34.94369054 C682.01493654 33.98744833 682.02677227 33.03120613 682.03896666 32.04598689 C681.93469297 24.4742951 679.80758549 17.88353948 674.61955309 12.20701003 C667.51974345 5.55775165 660.50997651 4.68681665 651.14034122 4.74454045 C650.0108034 4.73958094 648.88126558 4.73462142 647.71749935 4.72951162 C643.91704812 4.71651608 640.11694594 4.72495306 636.31648582 4.73324132 C633.57044582 4.73001257 630.82442252 4.72228636 628.07839131 4.71478343 C622.09991724 4.70086538 616.12151885 4.69813907 610.14303154 4.70274282 C601.252723 4.70957107 592.36249117 4.69932221 583.47219329 4.68578526 C566.67072701 4.66086041 549.86929248 4.65635696 533.06781068 4.65825123 C520.09418262 4.6596237 507.12056559 4.65580955 494.14693969 4.64832616 C492.2837529 4.64727583 490.42056611 4.64622821 488.55737931 4.6451833 C487.63251584 4.64466395 486.70765238 4.64414461 485.75476274 4.64360953 C484.8282167 4.64308938 483.90167066 4.64256924 482.94704747 4.64203334 C482.01896282 4.64150935 481.09087817 4.64098535 480.13466975 4.64044548 C454.02686732 4.62585952 427.91906896 4.61758087 401.81126255 4.62219548 C400.33455659 4.62245341 400.33455659 4.62245341 398.82801819 4.62271656 C393.83821178 4.62360546 388.84840537 4.62455027 383.85859897 4.62551457 C382.8675895 4.6257056 381.87658004 4.62589663 380.85553998 4.62609345 C378.85147739 4.62648055 376.84741479 4.62687087 374.84335219 4.62726443 C343.65909888 4.63323466 312.47491978 4.61779627 281.29068321 4.58565831 C246.26279719 4.54958985 211.23495823 4.53024753 176.20705247 4.53519702 C172.472812 4.535667 168.73857153 4.53607726 165.00433105 4.53644872 C164.08485256 4.5365511 163.16537408 4.53665349 162.21803261 4.53675898 C148.33158027 4.53795431 134.44517873 4.52598 120.55874008 4.50730443 C104.76721014 4.48607715 88.97578684 4.4822076 73.18425217 4.50160402 C64.34574214 4.51193823 55.50749214 4.50843988 46.66900556 4.48507317 C40.7649819 4.4708474 34.86115077 4.47479879 28.95714012 4.49351893 C25.59309985 4.50367493 22.2299798 4.50323194 18.86590549 4.48619825 C15.23913492 4.46908237 11.61372457 4.48270411 7.98700565 4.50403142 C6.94678266 4.49175389 5.90655966 4.47947637 4.83481476 4.4668268 C-3.77817089 4.57284175 -10.92124102 7.11035997 -17.06258827 13.3151505 C-22.34826277 20.20572587 -23.07130039 28.76717867 -23.05746132 37.16720128 C-23.06765297 38.11475789 -23.07784462 39.0623145 -23.08834511 40.03858495 C-23.11825186 43.13343952 -23.12770674 46.22798347 -23.13680702 49.322963 C-23.15367027 51.48344488 -23.17182271 53.64391704 -23.19120461 55.80437779 C-23.23853189 61.4628247 -23.26845283 67.1212322 -23.29464394 72.77981114 C-23.32453686 78.56510754 -23.37103708 84.35026843 -23.4161039 90.135463 C-23.50194042 101.46612103 -23.56937285 112.7968071 -23.62508827 124.1276505 C-24.94508827 124.1276505 -26.26508827 124.1276505 -27.62508827 124.1276505 C-27.71790525 111.11438387 -27.7889129 98.10119644 -27.83233696 85.0876658 C-27.85318186 79.04447832 -27.8814434 73.00151788 -27.92684609 66.95846105 C-27.97041358 61.12292755 -27.99424867 55.287612 -28.00459725 49.45192838 C-28.011969 47.22925378 -28.02636425 45.00659065 -28.0480085 42.78400922 C-28.0771868 39.66270155 -28.08103817 36.54228622 -28.07918984 33.42086339 C-28.09357094 32.50879628 -28.10795204 31.59672917 -28.12276894 30.65702367 C-28.06471117 21.55343873 -24.76956279 14.56516504 -18.62899452 7.92061925 C-13.35862451 3.20502502 -7.11438646 0.00443182 0 0 Z " fill="#060606" transform="translate(364.6250882744789,352.8723495006561)"/>
<path d="M0 0 C10.65351685 8.82767827 18.83665224 21.1772908 21 35 C22.96640061 56.73760405 20.81545354 74.88633179 6.75 92.1875 C2.70432222 96.59773336 -1.93178174 99.85739658 -7 103 C-8.08667969 103.69609375 -8.08667969 103.69609375 -9.1953125 104.40625 C-25.60088098 113.78086056 -47.95841811 114.40928354 -65.92041016 109.90942383 C-82.11133194 105.35799706 -95.10191362 96.39243875 -104 82 C-112.30563091 64.68144601 -114.28623736 43.3441802 -108 25 C-101.28668449 9.20824427 -89.81236378 -2.29437849 -73.9921875 -8.93359375 C-49.70077689 -17.59097638 -21.06844004 -15.3597759 0 0 Z " fill="#010101" transform="translate(680,549)"/>
<path d="M0 0 C0.70110901 0.00143005 1.40221802 0.00286011 2.12457275 0.0043335 C19.38776976 0.09141948 34.32297218 3.18409111 47.5 15.125 C52.5396513 20.45146072 56.88866183 27.33457392 57.53125 34.7421875 C57.25 37.5 57.25 37.5 55.25 39.5 C52.71627161 39.73634823 50.29515412 39.85221709 47.7578125 39.87109375 C46.64428909 39.88463646 46.64428909 39.88463646 45.50827026 39.89845276 C43.93638144 39.91296964 42.36443199 39.92184558 40.79248047 39.92553711 C38.39056085 39.937423 35.99121985 39.98657744 33.58984375 40.03710938 C32.06251254 40.04657494 30.53516555 40.05380934 29.0078125 40.05859375 C28.29102325 40.07812607 27.57423401 40.09765839 26.83572388 40.11778259 C23.10742918 40.08416047 21.58763411 39.83696601 18.90576172 37.16040039 C18.35936035 36.28246826 17.81295898 35.40453613 17.25 34.5 C13.49790232 29.28875322 10.48940983 26.72944036 4.25 25.5 C-2.41776078 24.86914747 -8.06715511 24.71143674 -13.75 28.5 C-13.75 31.47 -13.75 34.44 -13.75 37.5 C-13.028125 37.78875 -12.30625 38.0775 -11.5625 38.375 C-9.85109736 39.05956106 -8.14676392 39.76266747 -6.45678711 40.49853516 C-3.50850713 41.58934822 -0.73020833 42.13962459 2.37109375 42.6484375 C3.54736328 42.84687256 4.72363281 43.04530762 5.93554688 43.24975586 C7.79276367 43.55925171 7.79276367 43.55925171 9.6875 43.875 C45.96050487 50.17842781 45.96050487 50.17842781 55.25 61.5 C55.95125 62.28375 56.6525 63.0675 57.375 63.875 C61.80016612 70.07023256 62.78332118 75.36147467 62.6875 82.8125 C62.67775146 83.65482178 62.66800293 84.49714355 62.65795898 85.36499023 C62.35312946 96.05468991 59.08743303 102.51158942 51.671875 110.2421875 C37.35983156 123.58470542 17.38815048 126.40292969 -1.5546875 125.78515625 C-19.00183347 124.80860639 -36.42786792 120.32190011 -48.84765625 107.30078125 C-54.80602081 100.05207022 -59.16105046 91.12568235 -60 81.6875 C-59.75 79.5 -59.75 79.5 -57.75 77.5 C-55.2042644 77.28815352 -52.76999362 77.19601192 -50.22265625 77.19921875 C-49.47793564 77.19493362 -48.73321503 77.1906485 -47.96592712 77.18623352 C-46.38981137 77.18048718 -44.8136691 77.1799922 -43.23754883 77.18432617 C-40.82522308 77.18748335 -38.41412688 77.16404244 -36.00195312 77.13867188 C-34.47135572 77.13639863 -32.940755 77.13569551 -31.41015625 77.13671875 C-30.68820572 77.127509 -29.96625519 77.11829926 -29.22242737 77.10881042 C-24.22082028 77.1550313 -24.22082028 77.1550313 -21.83105469 78.90600586 C-20.63298065 80.67254276 -19.77412807 82.41140719 -18.9375 84.375 C-16.07728949 90.27960125 -11.70226548 93.38694185 -5.69213867 95.87817383 C-2.43635218 96.92059849 0.80566751 96.98694081 4.1875 96.9375 C4.8875415 96.93282715 5.58758301 96.9281543 6.30883789 96.92333984 C11.99147524 96.7606197 15.61460718 95.71639502 20.25 92.5 C21.85586255 89.2882749 21.86351717 85.97429946 21.25 82.5 C16.68308654 77.54163681 11.01358467 76.31071077 4.54296875 75.38671875 C3.24125732 75.19343994 1.9395459 75.00016113 0.59838867 74.80102539 C-0.08204498 74.70129425 -0.76247864 74.60156311 -1.46353149 74.49880981 C-39.25385636 68.89391437 -39.25385636 68.89391437 -50.49609375 55.50390625 C-55.77858956 47.06178678 -56.06561289 38.19535409 -54.75 28.5 C-51.91478832 18.94544049 -46.39055615 12.91508565 -38.02734375 7.8515625 C-25.90762097 1.30467668 -13.62058832 -0.08988226 0 0 Z " fill="#39B6FF" transform="translate(95.75,535.5)"/>
<path d="M0 0 C1.12347839 0.00607269 1.12347839 0.00607269 2.26965332 0.01226807 C3.03894165 0.01035461 3.80822998 0.00844116 4.60083008 0.00646973 C6.22823412 0.00510799 7.85564902 0.00880368 9.48303223 0.01715088 C11.97855963 0.02785086 14.47336714 0.01725555 16.96887207 0.00445557 C18.54830075 0.00577716 20.12772898 0.00833956 21.70715332 0.01226807 C22.45613892 0.0082196 23.20512451 0.00417114 23.97680664 0 C29.25848089 0.04797064 29.25848089 0.04797064 31.48840332 2.27789307 C31.73995972 5.14654541 31.73995972 5.14654541 31.74377441 8.86383057 C31.74739487 9.5405632 31.75101532 10.21729584 31.75474548 10.91453552 C31.76164764 12.38721365 31.76414339 13.8599174 31.76279831 15.33261108 C31.76183325 17.67123644 31.77477633 20.00940182 31.79177856 22.34796143 C31.83803036 28.99823326 31.86261632 35.64846213 31.8692627 42.29888916 C31.87430848 46.36682908 31.89872261 50.43429608 31.93458939 54.5020752 C31.94432697 56.04562526 31.94675263 57.58924094 31.94141769 59.1328125 C31.91321486 67.70273514 31.98036281 75.69912225 36.48840332 83.27789307 C40.20359144 86.99308118 43.46365522 88.41511393 48.67590332 88.59039307 C54.55639755 88.4949305 58.80172668 86.62417628 63.21496582 82.77008057 C70.63691542 74.90939503 70.92300768 65.75044798 70.89909363 55.38028336 C70.89456603 53.24452749 70.90874731 51.1095786 70.92749023 48.97390747 C70.97022233 43.67958493 70.98155376 38.38528522 70.99371338 33.09082031 C71.00523593 28.59500502 71.02874325 24.09956633 71.06840515 19.60390854 C71.08197066 17.50151492 71.07780889 15.39963083 71.07299805 13.29721069 C71.08310913 12.02513763 71.09322021 10.75306458 71.1036377 9.44244385 C71.10569214 8.32153351 71.10774658 7.20062317 71.10986328 6.04574585 C71.48840332 3.27789307 71.48840332 3.27789307 72.79234314 1.4158783 C75.69076085 -0.52883839 78.99613313 -0.1271288 82.36730957 -0.08538818 C83.51911964 -0.08613594 83.51911964 -0.08613594 84.69419861 -0.0868988 C86.31564933 -0.08456027 87.9371038 -0.07484463 89.55847168 -0.05828857 C92.04520975 -0.03466103 94.53087815 -0.03773316 97.0177002 -0.04437256 C98.5925764 -0.03879687 100.16744808 -0.03168768 101.74230957 -0.02288818 C102.48815811 -0.02379959 103.23400665 -0.024711 104.00245667 -0.02565002 C109.25736041 0.04685016 109.25736041 0.04685016 111.48840332 2.27789307 C111.73449898 4.35122108 111.73449898 4.35122108 111.72891235 6.96017456 C111.73166168 7.94737991 111.73441101 8.93458527 111.73724365 9.95170593 C111.72645782 11.58197472 111.72645782 11.58197472 111.7154541 13.24517822 C111.71574615 14.38663803 111.71603821 15.52809784 111.71633911 16.70414734 C111.71494141 20.49182637 111.69935941 24.27931073 111.68371582 28.06695557 C111.67998726 30.68726494 111.67713955 33.3075757 111.67514038 35.92788696 C111.66891833 42.12919 111.65249777 48.33042273 111.6324414 54.53169477 C111.61010489 61.59084724 111.59909464 68.65000303 111.58905053 75.70918202 C111.56813213 90.23212202 111.53294212 104.75500656 111.48840332 119.27789307 C98.19695295 117.44526185 89.99376356 112.8507996 81.20324707 102.61773682 C79.48840332 100.27789307 79.48840332 100.27789307 79.48840332 98.27789307 C77.12178872 100.50363775 75.34669075 102.87054204 73.48840332 105.52789307 C66.06752165 115.14059633 55.22080629 119.60393319 43.48840332 121.27789307 C30.65489872 122.1445713 18.85187215 120.30347498 8.48840332 112.27789307 C0.1314234 104.47033397 -3.60890509 96.14912017 -6.51159668 85.27789307 C-6.68624954 84.7288028 -6.8609024 84.17971252 -7.04084778 83.61398315 C-7.71164158 80.28517083 -7.65898505 76.98475679 -7.65686035 73.60357666 C-7.66021896 72.83567307 -7.66357758 72.06776947 -7.66703796 71.27659607 C-7.67652289 68.74315771 -7.67848947 66.20978556 -7.67956543 63.67633057 C-7.6827784 61.91563896 -7.68614251 60.15494763 -7.68965149 58.39425659 C-7.69563565 54.70735047 -7.69749199 51.02046777 -7.69689941 47.33355713 C-7.69679753 42.60093322 -7.71047992 37.86845846 -7.72767162 33.13586998 C-7.73876563 29.50199691 -7.74081947 25.86816028 -7.74028969 22.234272 C-7.74147257 20.48869942 -7.74591153 18.74312599 -7.75362206 16.99757004 C-7.76337484 14.56274541 -7.76056338 12.12824987 -7.7545166 9.69342041 C-7.76013611 8.9681868 -7.76575562 8.24295319 -7.77154541 7.4957428 C-7.73103249 1.10476863 -6.32783107 0.05747232 0 0 Z " fill="#39B6FF" transform="translate(184.5115966796875,539.7221069335938)"/>
<path d="M0 0 C0.94746094 -0.02900391 1.89492188 -0.05800781 2.87109375 -0.08789062 C13.93198762 -0.18624331 22.69526923 3.95252438 30.875 11.3125 C43.09006772 23.98698399 43.83590859 41.17656869 43.73828125 57.6953125 C43.73776158 59.4445699 43.73828341 61.19382789 43.73979187 62.94308472 C43.73970278 66.58226403 43.72939333 70.22121886 43.71118164 73.86035156 C43.68832687 78.53000169 43.68798743 83.19932957 43.69469929 87.86902046 C43.69803227 91.46858604 43.6914247 95.06807767 43.68157005 98.66762924 C43.67771879 100.39086394 43.67656953 102.11410685 43.6781559 103.83734512 C43.67852523 106.23303364 43.66594973 108.62830045 43.6496582 111.02392578 C43.65213562 111.73659103 43.65461304 112.44925629 43.65716553 113.18351746 C43.60376492 118.08373508 43.60376492 118.08373508 41.375 120.3125 C38.75736005 120.52443558 36.24815295 120.6164819 33.62890625 120.61328125 C32.86198959 120.61756638 32.09507294 120.6218515 31.30491638 120.62626648 C29.68172188 120.63201323 28.05850162 120.63250749 26.43530273 120.62817383 C23.95056206 120.6250166 21.46701498 120.64845754 18.98242188 120.67382812 C17.4062515 120.67610136 15.83007793 120.6768045 14.25390625 120.67578125 C13.51008194 120.684991 12.76625763 120.69420074 11.99989319 120.70368958 C6.91562949 120.6580602 6.91562949 120.6580602 4.67695618 119.22714233 C2.68699158 116.30072244 3.01110167 113.8143042 3.02197266 110.3059082 C3.01981247 109.59655624 3.01765228 108.88720428 3.01542664 108.15635681 C3.01233926 106.61601523 3.01594678 105.07564905 3.02544022 103.53533363 C3.03918182 101.09206663 3.03273829 98.64961176 3.02059937 96.2063446 C2.98965002 89.25998661 2.99444465 82.31381564 3.01464844 75.36743164 C3.02560611 71.11678087 3.01228632 66.86673749 2.98475266 62.61617088 C2.97933256 61.00116538 2.98332357 59.38609836 2.99715042 57.77114296 C3.29235762 46.60002055 3.29235762 46.60002055 -1.27774048 36.66496277 C-4.64401743 33.28568492 -7.97363725 32.16833503 -12.625 32 C-18.91050187 32.27484134 -23.68202659 34.44408602 -28.625 38.3125 C-33.07293021 44.11951999 -34.86733004 48.77944907 -34.91210938 56.07470703 C-34.92235893 57.06343811 -34.92235893 57.06343811 -34.93281555 58.07214355 C-34.94635001 59.49565375 -34.95543758 60.91921181 -34.96052551 62.34277725 C-34.96884375 64.59570344 -34.98937262 66.84822996 -35.01306152 69.1010437 C-35.06935161 74.69252072 -35.104713 80.28409451 -35.14068604 85.87573242 C-35.17192065 90.60866797 -35.2110914 95.3414072 -35.26094055 100.07418442 C-35.28101098 102.29387785 -35.2893269 104.51341957 -35.29724121 106.73318481 C-35.31021134 108.09182288 -35.32373131 109.45045584 -35.33789062 110.80908203 C-35.34518188 111.99535187 -35.35247314 113.1816217 -35.35998535 114.40383911 C-35.625 117.3125 -35.625 117.3125 -37.625 120.3125 C-40.36752444 120.61667228 -42.88052627 120.73255798 -45.625 120.7109375 C-46.41648437 120.71380768 -47.20796875 120.71667786 -48.0234375 120.71963501 C-49.69792394 120.72167777 -51.37243412 120.71613307 -53.046875 120.70361328 C-55.61512429 120.68756172 -58.18179986 120.70345383 -60.75 120.72265625 C-62.37500349 120.72067385 -64.00000599 120.71683025 -65.625 120.7109375 C-66.39585937 120.71701019 -67.16671875 120.72308289 -67.9609375 120.7293396 C-70.125 120.70068359 -70.125 120.70068359 -73.625 120.3125 C-75.7750644 117.0874034 -75.8735312 116.25817946 -75.86550903 112.54792786 C-75.86825836 111.56776199 -75.87100769 110.58759613 -75.87384033 109.57772827 C-75.86664978 108.50382843 -75.85945923 107.42992859 -75.85205078 106.32348633 C-75.85234283 105.19163406 -75.85263489 104.0597818 -75.85293579 102.89363098 C-75.85153989 99.14385371 -75.83596622 95.39427391 -75.8203125 91.64453125 C-75.8165833 89.04807138 -75.81373589 86.4516101 -75.81173706 83.85514832 C-75.80487501 77.71408195 -75.78910414 71.57309737 -75.76903808 65.43206185 C-75.74668878 58.44059966 -75.73568809 51.44913408 -75.72564721 44.45764506 C-75.70473815 30.07589182 -75.66955611 15.69419844 -75.625 1.3125 C-73.89605618 1.76543138 -72.16845158 2.22347635 -70.44140625 2.68359375 C-69.47920166 2.93810303 -68.51699707 3.1926123 -67.52563477 3.45483398 C-56.27746248 6.7807181 -48.41224072 13.86274041 -41.625 23.3125 C-41.29628906 22.8278125 -40.96757813 22.343125 -40.62890625 21.84375 C-30.42565257 7.46518113 -17.47764436 0.17408012 0 0 Z " fill="#020202" transform="translate(797.625,535.6875)"/>
<path d="M0 0 C13.21521606 3.20528103 24.70732535 8.98577243 32.3125 20.6875 C38.7284993 32.71164166 39.58367127 43.97012172 39.4609375 57.26171875 C39.45854759 58.98712526 39.45764891 60.71253441 39.4581604 62.4379425 C39.4550567 66.02414628 39.43866528 69.60994332 39.41162109 73.19604492 C39.37736068 77.7973 39.37000182 82.39811628 39.37151146 86.99948406 C39.37096903 90.54844871 39.36002695 94.09731706 39.34550858 97.64624977 C39.33914236 99.34436123 39.33520209 101.04248356 39.33372116 102.74060631 C39.32940219 105.10029336 39.31194062 107.45950613 39.29052734 109.8190918 C39.2918869 110.871707 39.2918869 110.871707 39.29327393 111.94558716 C39.22898703 116.77101297 39.22898703 116.77101297 37 119 C34.37059804 119.19965373 31.84879837 119.2798411 29.21875 119.265625 C28.44946167 119.26753845 27.68017334 119.2694519 26.88757324 119.27142334 C25.2601692 119.27278508 23.6327543 119.26908939 22.00537109 119.26074219 C19.50984369 119.25004221 17.01503618 119.26063751 14.51953125 119.2734375 C12.94010257 119.2721159 11.36067434 119.2695535 9.78125 119.265625 C9.0322644 119.26967346 8.28327881 119.27372192 7.51159668 119.27789307 C2.22992243 119.22992243 2.22992243 119.22992243 0 117 C-0.24609566 114.92667198 -0.24609566 114.92667198 -0.24050903 112.31771851 C-0.24325836 111.33051315 -0.24600769 110.3433078 -0.24884033 109.32618713 C-0.24164978 108.23934128 -0.23445923 107.15249542 -0.22705078 106.03271484 C-0.22748886 104.32052513 -0.22748886 104.32052513 -0.22793579 102.57374573 C-0.22653809 98.78606669 -0.21095609 94.99858233 -0.1953125 91.2109375 C-0.19158394 88.59062813 -0.18873623 85.97031737 -0.18673706 83.3500061 C-0.18051501 77.14870306 -0.16409445 70.94747034 -0.14403808 64.7461983 C-0.12170157 57.68704583 -0.11069132 50.62789004 -0.10064721 43.56871104 C-0.07972881 29.04577105 -0.0445388 14.52288651 0 0 Z " fill="#38B6FF" transform="translate(322,537)"/>
<path d="M0 0 C7.45575605 5.11591772 11.58883094 11.28505419 14 20 C15.07175479 29.64462054 14.97603601 39.45562238 10 48 C9.4740625 48.97839844 9.4740625 48.97839844 8.9375 49.9765625 C5.82610674 55.05418344 1.69386894 58.24983537 -4 60 C-12.2516593 60.8769476 -20.55961163 61.0711559 -28 57 C-34.44550866 51.75365575 -39.02261469 44.30777515 -40 36 C-40.76125523 24.63554693 -40.06231359 14.80902284 -32.671875 5.75390625 C-23.76316461 -3.59191376 -11.62324646 -5.83223182 0 0 Z " fill="#FCFCFC" transform="translate(648,569)"/>
<path d="M0 0 C0 0.99 0 1.98 0 3 C1.32 3 2.64 3 4 3 C4 2.01 4 1.02 4 0 C12.3093277 0.19447363 19.638089 1.97154088 25.890625 7.74609375 C29.29855682 11.59242457 31.8113298 15.03782994 32.3125 20.25 C31.80359863 26.35681648 30.47680446 31.01121492 25.875 35.25 C18.61179887 40.69194203 11.71571536 42.73594835 2.6875 42.625 C1.76904297 42.61807129 0.85058594 42.61114258 -0.09570312 42.60400391 C-8.71445224 42.32877568 -15.27017718 40.29702858 -21.79296875 34.37109375 C-26.30921455 29.32352492 -26.34743253 24.40905536 -26.27734375 17.9453125 C-25.76855034 12.54206983 -23.04705116 10.02270113 -19.3125 6.375 C-13.44958334 1.80014836 -7.43061847 -0.63239306 0 0 Z " fill="#39B6FE" transform="translate(337,474)"/>
</svg>
